IKResults
version=1
nRows=8
nColumns=63
inDegrees=yes

Units are S.I. units (second, meters, Newtons, ...)
If the header above contains a line with 'inDegrees', this indicates whether rotational values are in degrees (yes) or radians (no).

endheader
time	pelvis_tilt	pelvis_list	pelvis_rotation	pelvis_tx	pelvis_ty	pelvis_tz	hip_flexion_r	hip_adduction_r	hip_rotation_r	knee_angle_r	knee_angle_r_beta	ankle_angle_r	subtalar_angle_r	mtp_angle_r	hip_flexion_l	hip_adduction_l	hip_rotation_l	knee_angle_l	knee_angle_l_beta	ankle_angle_l	subtalar_angle_l	mtp_angle_l	L5_S1_Flex_Ext	L5_S1_Lat_Bending	L5_S1_axial_rotation	L4_L5_Flex_Ext	L4_L5_Lat_Bending	L4_L5_axial_rotation	L3_L4_Flex_Ext	L3_L4_Lat_Bending	L3_L4_axial_rotation	L2_L3_Flex_Ext	L2_L3_Lat_Bending	L2_L3_axial_rotation	L1_L2_Flex_Ext	L1_L2_Lat_Bending	L1_L2_axial_rotation	L1_T12_Flex_Ext	L1_T12_Lat_Bending	L1_T12_axial_rotation	Abs_r3	Abs_r2	Abs_r1	Abs_t1	Abs_t2	neck_flexion	neck_bending	neck_rotation	arm_flex_r	arm_add_r	arm_rot_r	elbow_flex_r	pro_sup_r	wrist_flex_r	wrist_dev_r	arm_flex_l	arm_add_l	arm_rot_l	elbow_flex_l	pro_sup_l	wrist_flex_l	wrist_dev_l
      4.03333333	    -10.60810706	      7.09383716	    -34.81740641	     -0.58002010	      0.92334393	     -0.60424922	      4.99357705	     -4.30065151	     -6.23421082	      2.63990805	      0.04607509	     20.21948361	    -12.79887154	      0.00000000	      9.15095147	     -7.71091309	    -14.13009432	      9.46927307	      0.16526999	     20.27212723	     -2.66470262	      0.00000000	      1.48987775	     -0.17899323	      1.18447950	      2.76685197	     -0.23806099	      1.25850947	      2.44772016	     -0.43520414	      1.25850947	      1.70278128	     -0.43520414	      1.03641956	      1.38350048	     -0.36500299	      0.96238959	      0.85131615	     -0.27726051	      0.88835962	     10.64204780	     -2.02480720	      6.58771963	      0.00000000	      0.00000000	     23.37303123	     -4.07155739	    -17.38731793	    -12.87128276	     -4.86728260	    -28.65719505	     18.44451547	     89.99559364	      0.00000000	      0.00000000	     -3.91376064	    -13.91095671	     -0.07873242	     30.14976696	     89.99559364	      0.00000000	      0.00000000
      4.06666667	    -10.71745067	      7.22611350	    -34.74189371	     -0.58033060	      0.92319420	     -0.60419876	      5.11644101	     -4.32035011	     -6.17581326	      2.51169359	      0.04383732	     20.22226897	    -12.73466638	      0.00000000	      9.26997789	     -7.63662315	    -13.92787271	      9.27266859	      0.16183860	     20.15997755	     -2.70795962	      0.00000000	      1.51981878	     -0.19110031	      1.18531646	      2.82245545	     -0.25416342	      1.25939873	      2.49691027	     -0.46464130	      1.25939873	      1.73700088	     -0.46464130	      1.03715190	      1.41130372	     -0.38969176	      0.96306962	      0.86842445	     -0.29601438	      0.88898734	     10.85591354	     -2.16176495	      6.59237453	      0.00000000	      0.00000000	     23.46038478	     -3.94117565	    -18.31943652	    -12.38403366	     -4.78727952	    -28.97258733	     17.59341809	     89.99559364	      0.00000000	      0.00000000	     -3.81488387	    -13.99578243	     -0.33310730	     30.00363626	     89.99559364	      0.00000000	      0.00000000
      4.10000000	    -10.72187019	      7.22988635	    -34.70450914	     -0.58021261	      0.92321268	     -0.60409033	      5.11970377	     -4.31462876	     -6.17491533	      2.53794224	      0.04429545	     20.23233957	    -12.71920320	      0.00000000	      9.27864139	     -7.63323746	    -13.92202021	      9.27765495	      0.16192563	     20.16042665	     -2.70653744	      0.00000000	      1.53365277	     -0.18913559	      1.19306459	      2.84814656	     -0.25155033	      1.26763112	      2.51963814	     -0.45986426	      1.26763112	      1.75281175	     -0.45986426	      1.04393151	      1.42414996	     -0.38568529	      0.96936498	      0.87632919	     -0.29297102	      0.89479844	     10.95472838	     -2.13953957	      6.63546731	      0.00000000	      0.00000000	     23.43435110	     -3.93951932	    -18.32429565	    -12.24590048	     -4.76094718	    -28.97265939	     17.60379285	     89.99559364	      0.00000000	      0.00000000	     -3.77622372	    -14.01945005	     -0.34496144	     30.01121061	     89.99559364	      0.00000000	      0.00000000
      4.13333333	    -10.70167459	      7.47551798	    -34.13267745	     -0.58085836	      0.92317635	     -0.60523160	      5.18266702	     -4.58469366	     -6.86580035	      2.42824065	      0.04238079	     20.53196545	    -12.27527689	      0.00000000	      9.64453073	     -7.19042946	    -11.87647058	      9.24513318	      0.16135801	     19.51498427	     -4.89009814	      0.00000000	      1.54204623	     -0.22678518	      1.08617839	      2.86373406	     -0.30162428	      1.15406454	      2.53342775	     -0.55140548	      1.15406454	      1.76240464	     -0.55140548	      0.95040609	      1.43194413	     -0.46246033	      0.88251994	      0.88112522	     -0.35129024	      0.81463379	     11.01468203	     -2.56543926	      6.04099834	      0.00000000	      0.00000000	     23.56990040	     -3.75835598	    -19.25479864	    -10.77756734	     -2.58176631	    -45.84732681	     17.38631873	     89.99559364	      0.00000000	      0.00000000	     -3.59231052	    -13.93342294	     -1.54170837	     29.77910096	     89.99559364	      0.00000000	      0.00000000
      4.16666667	    -10.70404548	      7.50896317	    -34.11929926	     -0.58110135	      0.92312137	     -0.60520702	      5.19989518	     -4.59684885	     -6.80960959	      2.39448580	      0.04179166	     20.63106861	    -12.23759704	      0.00000000	      9.66455723	     -7.15877590	    -11.85642383	      9.20711910	      0.16069454	     19.59914028	     -4.87580917	      0.00000000	      1.55472593	     -0.23148785	      1.08576002	      2.88728153	     -0.30787884	      1.15362002	      2.55425923	     -0.56283955	      1.15362002	      1.77689627	     -0.56283955	      0.95004001	      1.44371850	     -0.47205002	      0.88218001	      0.88837040	     -0.35857468	      0.81432001	     11.10525186	     -2.61863683	      6.03867148	      0.00000000	      0.00000000	     23.57645535	     -3.62663400	    -19.31541394	    -10.53278632	     -2.55952837	    -45.84261409	     17.36849445	     89.99559364	      0.00000000	      0.00000000	     -3.53790031	    -13.98749311	     -1.55173255	     29.69235244	     89.99559364	      0.00000000	      0.00000000
      4.20000000	    -10.69459574	      7.50370997	    -34.07272068	     -0.58099007	      0.92313173	     -0.60519726	      5.17609613	     -4.60540764	     -6.80240161	      2.40896182	      0.04204432	     20.64385576	    -12.22730421	      0.00000000	      9.65450628	     -7.14348213	    -11.85348475	      9.20968263	      0.16073928	     19.60768460	     -4.87233925	      0.00000000	      1.56660321	     -0.23177153	      1.09182142	      2.90933881	     -0.30825613	      1.16006026	      2.57377241	     -0.56352929	      1.16006026	      1.79047080	     -0.56352929	      0.95534374	      1.45474774	     -0.47262849	      0.88710490	      0.89515707	     -0.35901409	      0.81886607	     11.19009004	     -2.62184585	      6.07238320	      0.00000000	      0.00000000	     23.56846498	     -3.60618088	    -19.32144468	    -10.40827136	     -2.55968284	    -45.83478749	     17.38356213	     89.99559364	      0.00000000	      0.00000000	     -3.51299891	    -13.98574176	     -1.55159247	     29.68444246	     89.99559364	      0.00000000	      0.00000000
      4.23333333	    -10.59239280	      7.63657566	    -34.01442383	     -0.58140434	      0.92312900	     -0.60556477	      5.18751721	     -4.80192417	     -6.70827316	      2.40280736	      0.04193690	     20.83980556	    -12.13134703	      0.00000000	      9.69525796	     -6.94914688	    -11.82507819	      9.22516462	      0.16100950	     19.63554070	     -4.84416403	      0.00000000	      1.56385772	     -0.25622646	      1.09100840	      2.90424017	     -0.34078119	      1.15919643	      2.56926185	     -0.62298902	      1.15919643	      1.78733299	     -0.62298902	      0.95463235	      1.45219828	     -0.52249700	      0.88644433	      0.89358830	     -0.39689479	      0.81825630	     11.17047932	     -2.89848497	      6.06786145	      0.00000000	      0.00000000	     23.74326296	     -2.99704980	    -19.46879949	    -10.22109470	     -2.45277048	    -45.78624341	     17.58759451	     89.99559364	      0.00000000	      0.00000000	     -3.26220365	    -14.01323231	     -1.52770237	     29.28235766	     89.99559364	      0.00000000	      0.00000000
      4.26666667	    -10.55917028	      7.65936004	    -33.96730030	     -0.58157591	      0.92312415	     -0.60585255	      5.18986985	     -4.85453674	     -6.74604481	      2.41403673	      0.04213289	     20.90921201	    -12.13129176	      0.00000000	      9.70458107	     -6.88689473	    -11.82904460	      9.23414461	      0.16116623	     19.69258960	     -4.86178068	      0.00000000	      1.56513286	     -0.26091236	      1.10197527	      2.90660824	     -0.34701344	      1.17084873	      2.57135678	     -0.63438231	      1.17084873	      1.78879035	     -0.63438231	      0.96422836	      1.45338238	     -0.53205249	      0.89535491	      0.89431692	     -0.40415325	      0.82648145	     11.17958754	     -2.95149280	      6.12885588	      0.00000000	      0.00000000	     23.71955549	     -2.93141601	    -19.46927593	    -10.10434290	     -2.42095021	    -45.73249618	     17.81072126	     89.99559364	      0.00000000	      0.00000000	     -3.16196764	    -13.97944827	     -1.50729034	     29.24926752	     89.99559364	      0.00000000	      0.00000000
